<?xml version="1.0" encoding="UTF-8"?>
<svg id="Layer_1" data-name="Layer 1" xmlns="http://www.w3.org/2000/svg" viewBox="0 0 476.28 456">
  <defs>
    <style>
      .cls-1 {
        stroke: #ffe500;
        stroke-miterlimit: 10;
        stroke-width: 5px;
      }

      .cls-1, .cls-2 {
        fill: #ffe500;
      }

      .cls-3 {
        fill: #9f0005;
      }
    </style>
  </defs>
  <g>
    <path class="cls-3" d="M238.14,455.5c-63.48,0-123.16-23.67-168.04-66.64C25.22,345.89.5,288.76.5,228S25.22,110.11,70.09,67.14C114.98,24.17,174.66.5,238.14.5s123.16,23.67,168.04,66.64c44.88,42.97,69.59,100.1,69.59,160.86s-24.72,117.89-69.59,160.86c-44.88,42.97-104.56,66.64-168.04,66.64Z"/>
    <path d="M238.14,1c32.02,0,63.08,6,92.32,17.84,28.24,11.44,53.6,27.81,75.38,48.66,21.78,20.85,38.87,45.12,50.81,72.15,12.36,27.98,18.63,57.7,18.63,88.34s-6.27,60.36-18.63,88.34c-11.94,27.03-29.04,51.31-50.81,72.15-21.78,20.85-47.14,37.22-75.38,48.66-29.24,11.84-60.3,17.84-92.32,17.84s-63.08-6-92.32-17.84c-28.24-11.44-53.6-27.81-75.38-48.66-21.78-20.85-38.87-45.12-50.81-72.15C7.27,288.36,1,258.64,1,228s6.27-60.36,18.63-88.34c11.94-27.03,29.04-51.31,50.81-72.15,21.78-20.85,47.14-37.22,75.38-48.66C175.06,7,206.12,1,238.14,1M238.14,0C106.62,0,0,102.08,0,228s106.62,228,238.14,228,238.14-102.08,238.14-228S369.66,0,238.14,0h0Z"/>
  </g>
  <g>
    <path class="cls-2" d="M162.38,226.34c-11.92-15.31-24.81-30.05-38.44-43.94l-1.39-1.42-1.7,1.03c-22.16,13.51-46.12,26.88-71.3,39.77,9.22-24.56,23.07-47.84,36.5-70.41l1.56-2.62-1.64-1.37c-13.12-10.93-26.89-21.28-41.03-30.85,18.36-.56,36.89-.85,55.21-.85,1.63,0,6.39.01,6.39.01l.71-1.33c11.16-21.1,18.3-39.08,22.32-56.48,3.04,18.76,6.31,37.62,9.73,56.24l.37,2,2.03.05c23.03.53,46.33,1.53,69.36,2.95-19.1,15.27-39.48,30.1-60.66,44.12l-1.41.93.34,1.65c4.1,20.11,8.49,40.42,13.07,60.51Z"/>
    <path class="cls-2" d="M128.97,69.76c2.16,12.95,4.41,25.92,6.75,38.79-7.49-.15-15.02-.25-22.51-.3,6.94-13.84,12.11-26.41,15.76-38.48M96.64,118.2c-4.45,8.06-9.15,16.07-13.6,23.55-9.82-8-19.99-15.67-30.38-22.92,14.65-.39,29.37-.6,43.98-.63M147.78,118.83c18.81.5,37.77,1.31,56.58,2.4-15.67,12.31-32.14,24.31-49.18,35.8-2.55-12.69-5.03-25.49-7.4-38.21M85.65,156.94c9.8,8.36,19.35,17.15,28.48,26.23-18.82,11.31-38.88,22.49-59.83,33.36,8.43-20.59,19.93-40.36,31.35-59.59M148.35,173.56c2.94,14.2,6.01,28.48,9.19,42.68-8.71-10.71-17.89-21.11-27.45-31.1,6.17-3.82,12.28-7.69,18.26-11.59M129.72,43.09c-3.38,24.93-12.92,47.85-24.7,70.12,12.24.03,24.48.19,36.71.48-4.32-23.48-8.32-47.01-12.02-70.59h0ZM100.15,113.2c-21.04,0-42.07.37-63.1,1.11,16.44,10.76,32.24,22.45,47.31,35.01,7.13-11.98,14.23-23.95,20.66-36.11-1.63,0-3.25,0-4.88,0h0ZM141.74,113.68c3.17,17.25,6.51,34.47,10.02,51.66,22.91-15.17,44.83-31.2,65.85-48.29-25.26-1.66-50.56-2.78-75.87-3.36h0ZM84.36,149.32c-14.93,25.1-29.99,50.29-39.3,77.56,26.86-13.58,52.52-27.74,77.08-42.72-11.99-12.22-24.61-23.86-37.79-34.83h0ZM151.76,165.34c-9.69,6.42-19.56,12.68-29.61,18.81,16.29,16.61,31.44,34.31,45.27,52.96-5.55-23.86-10.77-47.78-15.66-71.77h0Z"/>
  </g>
  <path class="cls-1" d="M267.97,53.17c-1.87-11.84-1.74-23.99.36-35.79,13.36,9.32,25.87,19.86,37.33,31.43-17.62-2.83-35.24-5.66-52.86-8.49,16.37.05,32.71-5.26,45.92-14.94-13.22,7.45-23.87,19.36-29.8,33.33"/>
  <path class="cls-1" d="M304.47,96c11.48,12.75,22.27,26.13,32.29,40.05-19.85-9.48-40.02-18.31-60.45-26.45,21.8-.35,43.6-.69,65.4-1.04-16.72,4.94-36.58,20.96-52.49,22.53-1.33-10.93,9.11-25.94,15.24-35.08Z"/>
  <path class="cls-1" d="M204.08,312.74c4.53-18.11,10.27-35.91,17.16-53.26,11.36,14.61,20.3,31.09,26.36,48.58-15.55-9.76-31.11-19.51-46.66-29.27,17.11-1.09,34.21-2.18,51.32-3.26-11.77,17.65-28.4,32.03-48.18,37.21Z"/>
  <path class="cls-1" d="M299.3,185.1c10.64,16.38,18.21,34.75,22.2,53.87-13.58-11.59-28.73-21.33-44.91-28.88,18.63,3.33,38.04,2.19,56.15-3.29-13.92,6.26-27.45,24.24-40.86,27.24,3.42-16.38,7.32-32,7.43-48.94Z"/>
</svg>